<svg width="300" height="20" viewBox="0 0 300 20" fill="none" xmlns="http://www.w3.org/2000/svg">
<path d="M295.953 5.2853C295.244 1.72791 291.786 -0.581059 288.228 0.127953C285.626 0.646539 283.592 2.67972 283.072 5.2813C280.549 5.57198 278.74 7.85229 279.031 10.3747C279.298 12.6962 281.264 14.4477 283.601 14.4461H286.885C287.248 14.4461 287.542 14.152 287.542 13.7893C287.542 13.4265 287.248 13.1325 286.885 13.1325H283.601C281.787 13.1217 280.326 11.6429 280.337 9.82926C280.347 8.01549 281.826 6.5539 283.64 6.56463C283.975 6.56463 284.256 6.31287 284.293 5.98006C284.626 3.09757 287.233 1.03107 290.116 1.36452C292.539 1.64479 294.451 3.55658 294.732 5.98006C294.787 6.31879 295.08 6.56687 295.423 6.56463C297.237 6.56463 298.707 8.03487 298.707 9.84864C298.707 11.6622 297.237 13.1325 295.423 13.1325H292.139C291.776 13.1325 291.482 13.4265 291.482 13.7893C291.482 14.152 291.776 14.4461 292.139 14.4461H295.423C297.962 14.4302 300.008 12.3591 299.992 9.82013C299.978 7.50795 298.248 5.56622 295.953 5.2853Z" fill="#FF0043"/>
<path d="M291.834 15.7925L290.169 17.458V9.19183C290.169 8.82908 289.875 8.53503 289.512 8.53503C289.149 8.53503 288.855 8.82908 288.855 9.19183V17.458L287.19 15.7925C286.938 15.5315 286.522 15.5243 286.262 15.7763C286.001 16.0283 285.993 16.444 286.245 16.7049C286.251 16.7105 286.256 16.7158 286.262 16.7211L289.047 19.5072C289.108 19.5679 289.18 19.6161 289.259 19.6491C289.421 19.7175 289.603 19.7175 289.765 19.6491C289.844 19.6161 289.916 19.5679 289.977 19.5072L292.762 16.7211C293.023 16.4692 293.031 16.0534 292.779 15.7925C292.527 15.5316 292.111 15.5244 291.85 15.7763C291.844 15.7816 291.839 15.7869 291.834 15.7925Z" fill="#FF0043"/>
<g opacity="0.499093">
<path d="M5.52344 4.625V16H4.03906V4.625H5.52344ZM9.17969 4.625V5.85938H0.390625V4.625H9.17969ZM11.5 8.875V16H10.0547V7.54688H11.4609L11.5 8.875ZM14.1406 7.5L14.1328 8.84375C14.013 8.81771 13.8984 8.80208 13.7891 8.79688C13.6849 8.78646 13.5651 8.78125 13.4297 8.78125C13.0964 8.78125 12.8021 8.83333 12.5469 8.9375C12.2917 9.04167 12.0755 9.1875 11.8984 9.375C11.7214 9.5625 11.5807 9.78646 11.4766 10.0469C11.3776 10.3021 11.3125 10.5833 11.2812 10.8906L10.875 11.125C10.875 10.6146 10.9245 10.1354 11.0234 9.6875C11.1276 9.23958 11.2865 8.84375 11.5 8.5C11.7135 8.15104 11.9844 7.88021 12.3125 7.6875C12.6458 7.48958 13.0417 7.39062 13.5 7.39062C13.6042 7.39062 13.724 7.40365 13.8594 7.42969C13.9948 7.45052 14.0885 7.47396 14.1406 7.5ZM17.9922 15.125L20.3438 7.54688H21.8906L18.5 17.3047C18.4219 17.513 18.3177 17.737 18.1875 17.9766C18.0625 18.2214 17.901 18.4531 17.7031 18.6719C17.5052 18.8906 17.2656 19.0677 16.9844 19.2031C16.7083 19.3438 16.3776 19.4141 15.9922 19.4141C15.8776 19.4141 15.7318 19.3984 15.5547 19.3672C15.3776 19.3359 15.2526 19.3099 15.1797 19.2891L15.1719 18.1172C15.2135 18.1224 15.2786 18.1276 15.3672 18.1328C15.4609 18.1432 15.526 18.1484 15.5625 18.1484C15.8906 18.1484 16.1693 18.1042 16.3984 18.0156C16.6276 17.9323 16.8203 17.7891 16.9766 17.5859C17.138 17.388 17.276 17.1146 17.3906 16.7656L17.9922 15.125ZM16.2656 7.54688L18.4609 14.1094L18.8359 15.6328L17.7969 16.1641L14.6875 7.54688H16.2656ZM31.4375 10.6797H28.5547L28.5391 9.46875H31.1562C31.5885 9.46875 31.9661 9.39583 32.2891 9.25C32.612 9.10417 32.862 8.89583 33.0391 8.625C33.2214 8.34896 33.3125 8.02083 33.3125 7.64062C33.3125 7.22396 33.2318 6.88542 33.0703 6.625C32.9141 6.35938 32.6719 6.16667 32.3438 6.04688C32.0208 5.92188 31.6094 5.85938 31.1094 5.85938H28.8906V16H27.3828V4.625H31.1094C31.6927 4.625 32.2135 4.6849 32.6719 4.80469C33.1302 4.91927 33.5182 5.10156 33.8359 5.35156C34.1589 5.59635 34.4036 5.90885 34.5703 6.28906C34.737 6.66927 34.8203 7.125 34.8203 7.65625C34.8203 8.125 34.7005 8.54948 34.4609 8.92969C34.2214 9.30469 33.888 9.61198 33.4609 9.85156C33.0391 10.0911 32.5443 10.2448 31.9766 10.3125L31.4375 10.6797ZM31.3672 16H27.9609L28.8125 14.7734H31.3672C31.8464 14.7734 32.2526 14.6901 32.5859 14.5234C32.9245 14.3568 33.1823 14.1224 33.3594 13.8203C33.5365 13.513 33.625 13.151 33.625 12.7344C33.625 12.3125 33.5495 11.9479 33.3984 11.6406C33.2474 11.3333 33.0104 11.0964 32.6875 10.9297C32.3646 10.763 31.9479 10.6797 31.4375 10.6797H29.2891L29.3047 9.46875H32.2422L32.5625 9.90625C33.1094 9.95312 33.5729 10.1094 33.9531 10.375C34.3333 10.6354 34.6224 10.9688 34.8203 11.375C35.0234 11.7812 35.125 12.2292 35.125 12.7188C35.125 13.4271 34.9688 14.026 34.6562 14.5156C34.349 15 33.9141 15.3698 33.3516 15.625C32.7891 15.875 32.1276 16 31.3672 16ZM40.6406 16.1562C40.0521 16.1562 39.5182 16.0573 39.0391 15.8594C38.5651 15.6562 38.1562 15.3724 37.8125 15.0078C37.474 14.6432 37.2135 14.2109 37.0312 13.7109C36.849 13.2109 36.7578 12.6641 36.7578 12.0703V11.7422C36.7578 11.0547 36.8594 10.4427 37.0625 9.90625C37.2656 9.36458 37.5417 8.90625 37.8906 8.53125C38.2396 8.15625 38.6354 7.8724 39.0781 7.67969C39.5208 7.48698 39.9792 7.39062 40.4531 7.39062C41.0573 7.39062 41.5781 7.49479 42.0156 7.70312C42.4583 7.91146 42.8203 8.20312 43.1016 8.57812C43.3828 8.94792 43.5911 9.38542 43.7266 9.89062C43.862 10.3906 43.9297 10.9375 43.9297 11.5312V12.1797H37.6172V11H42.4844V10.8906C42.4635 10.5156 42.3854 10.151 42.25 9.79688C42.1198 9.44271 41.9115 9.15104 41.625 8.92188C41.3385 8.69271 40.9479 8.57812 40.4531 8.57812C40.125 8.57812 39.8229 8.64844 39.5469 8.78906C39.2708 8.92448 39.0339 9.1276 38.8359 9.39844C38.638 9.66927 38.4844 10 38.375 10.3906C38.2656 10.7812 38.2109 11.2318 38.2109 11.7422V12.0703C38.2109 12.4714 38.2656 12.849 38.375 13.2031C38.4896 13.5521 38.6536 13.8594 38.8672 14.125C39.0859 14.3906 39.349 14.599 39.6562 14.75C39.9688 14.901 40.3229 14.9766 40.7188 14.9766C41.2292 14.9766 41.6615 14.8724 42.0156 14.6641C42.3698 14.4557 42.6797 14.1771 42.9453 13.8281L43.8203 14.5234C43.638 14.7995 43.4062 15.0625 43.125 15.3125C42.8438 15.5625 42.4974 15.7656 42.0859 15.9219C41.6797 16.0781 41.1979 16.1562 40.6406 16.1562ZM49.1562 7.54688V8.65625H44.5859V7.54688H49.1562ZM46.1328 5.49219H47.5781V13.9062C47.5781 14.1927 47.6224 14.4089 47.7109 14.5547C47.7995 14.7005 47.9141 14.7969 48.0547 14.8438C48.1953 14.8906 48.3464 14.9141 48.5078 14.9141C48.6276 14.9141 48.7526 14.9036 48.8828 14.8828C49.0182 14.8568 49.1198 14.8359 49.1875 14.8203L49.1953 16C49.0807 16.0365 48.9297 16.0703 48.7422 16.1016C48.5599 16.138 48.3385 16.1562 48.0781 16.1562C47.724 16.1562 47.3984 16.0859 47.1016 15.9453C46.8047 15.8047 46.5677 15.5703 46.3906 15.2422C46.2188 14.9089 46.1328 14.4609 46.1328 13.8984V5.49219ZM55.8359 14.5547V10.2031C55.8359 9.86979 55.7682 9.58073 55.6328 9.33594C55.5026 9.08594 55.3047 8.89323 55.0391 8.75781C54.7734 8.6224 54.4453 8.55469 54.0547 8.55469C53.6901 8.55469 53.3698 8.61719 53.0938 8.74219C52.8229 8.86719 52.6094 9.03125 52.4531 9.23438C52.3021 9.4375 52.2266 9.65625 52.2266 9.89062H50.7812C50.7812 9.58854 50.8594 9.28906 51.0156 8.99219C51.1719 8.69531 51.3958 8.42708 51.6875 8.1875C51.9844 7.94271 52.3385 7.75 52.75 7.60938C53.1667 7.46354 53.6302 7.39062 54.1406 7.39062C54.7552 7.39062 55.2969 7.49479 55.7656 7.70312C56.2396 7.91146 56.6094 8.22656 56.875 8.64844C57.1458 9.0651 57.2812 9.58854 57.2812 10.2188V14.1562C57.2812 14.4375 57.3047 14.737 57.3516 15.0547C57.4036 15.3724 57.4792 15.6458 57.5781 15.875V16H56.0703C55.9974 15.8333 55.9401 15.612 55.8984 15.3359C55.8568 15.0547 55.8359 14.7943 55.8359 14.5547ZM56.0859 10.875L56.1016 11.8906H54.6406C54.2292 11.8906 53.862 11.9245 53.5391 11.9922C53.2161 12.0547 52.9453 12.151 52.7266 12.2812C52.5078 12.4115 52.3411 12.5755 52.2266 12.7734C52.112 12.9661 52.0547 13.1927 52.0547 13.4531C52.0547 13.7188 52.1146 13.9609 52.2344 14.1797C52.3542 14.3984 52.5339 14.5729 52.7734 14.7031C53.0182 14.8281 53.3177 14.8906 53.6719 14.8906C54.1146 14.8906 54.5052 14.7969 54.8438 14.6094C55.1823 14.4219 55.4505 14.1927 55.6484 13.9219C55.8516 13.651 55.9609 13.388 55.9766 13.1328L56.5938 13.8281C56.5573 14.0469 56.4583 14.2891 56.2969 14.5547C56.1354 14.8203 55.9193 15.0755 55.6484 15.3203C55.3828 15.5599 55.0651 15.7604 54.6953 15.9219C54.3307 16.0781 53.9193 16.1562 53.4609 16.1562C52.888 16.1562 52.3854 16.0443 51.9531 15.8203C51.526 15.5964 51.1927 15.2969 50.9531 14.9219C50.7188 14.5417 50.6016 14.1172 50.6016 13.6484C50.6016 13.1953 50.6901 12.7969 50.8672 12.4531C51.0443 12.1042 51.2995 11.8151 51.6328 11.5859C51.9661 11.3516 52.3672 11.1745 52.8359 11.0547C53.3047 10.9349 53.8281 10.875 54.4062 10.875H56.0859ZM65.25 4.625V16H63.7422V4.625H65.25ZM70.0156 9.74219V10.9766H64.9219V9.74219H70.0156ZM70.7891 4.625V5.85938H64.9219V4.625H70.7891ZM71.8125 11.8672V11.6875C71.8125 11.0781 71.901 10.513 72.0781 9.99219C72.2552 9.46615 72.5104 9.01042 72.8438 8.625C73.1771 8.23438 73.5807 7.93229 74.0547 7.71875C74.5286 7.5 75.0599 7.39062 75.6484 7.39062C76.2422 7.39062 76.776 7.5 77.25 7.71875C77.7292 7.93229 78.1354 8.23438 78.4688 8.625C78.8073 9.01042 79.0651 9.46615 79.2422 9.99219C79.4193 10.513 79.5078 11.0781 79.5078 11.6875V11.8672C79.5078 12.4766 79.4193 13.0417 79.2422 13.5625C79.0651 14.0833 78.8073 14.5391 78.4688 14.9297C78.1354 15.3151 77.7318 15.6172 77.2578 15.8359C76.7891 16.0495 76.2578 16.1562 75.6641 16.1562C75.0703 16.1562 74.5365 16.0495 74.0625 15.8359C73.5885 15.6172 73.1823 15.3151 72.8438 14.9297C72.5104 14.5391 72.2552 14.0833 72.0781 13.5625C71.901 13.0417 71.8125 12.4766 71.8125 11.8672ZM73.2578 11.6875V11.8672C73.2578 12.2891 73.3073 12.6875 73.4062 13.0625C73.5052 13.4323 73.6536 13.7604 73.8516 14.0469C74.0547 14.3333 74.3073 14.5599 74.6094 14.7266C74.9115 14.888 75.263 14.9688 75.6641 14.9688C76.0599 14.9688 76.4062 14.888 76.7031 14.7266C77.0052 14.5599 77.2552 14.3333 77.4531 14.0469C77.651 13.7604 77.7995 13.4323 77.8984 13.0625C78.0026 12.6875 78.0547 12.2891 78.0547 11.8672V11.6875C78.0547 11.2708 78.0026 10.8776 77.8984 10.5078C77.7995 10.1328 77.6484 9.80208 77.4453 9.51562C77.2474 9.22396 76.9974 8.99479 76.6953 8.82812C76.3984 8.66146 76.0495 8.57812 75.6484 8.57812C75.2526 8.57812 74.9036 8.66146 74.6016 8.82812C74.3047 8.99479 74.0547 9.22396 73.8516 9.51562C73.6536 9.80208 73.5052 10.1328 73.4062 10.5078C73.3073 10.8776 73.2578 11.2708 73.2578 11.6875ZM82.7656 8.875V16H81.3203V7.54688H82.7266L82.7656 8.875ZM85.4062 7.5L85.3984 8.84375C85.2786 8.81771 85.1641 8.80208 85.0547 8.79688C84.9505 8.78646 84.8307 8.78125 84.6953 8.78125C84.362 8.78125 84.0677 8.83333 83.8125 8.9375C83.5573 9.04167 83.3411 9.1875 83.1641 9.375C82.987 9.5625 82.8464 9.78646 82.7422 10.0469C82.6432 10.3021 82.5781 10.5833 82.5469 10.8906L82.1406 11.125C82.1406 10.6146 82.1901 10.1354 82.2891 9.6875C82.3932 9.23958 82.5521 8.84375 82.7656 8.5C82.9792 8.15104 83.25 7.88021 83.5781 7.6875C83.9115 7.48958 84.3073 7.39062 84.7656 7.39062C84.8698 7.39062 84.9896 7.40365 85.125 7.42969C85.2604 7.45052 85.3542 7.47396 85.4062 7.5ZM92.4375 4.625V16H90.9297V4.625H92.4375ZM97.2031 9.74219V10.9766H92.1094V9.74219H97.2031ZM97.9766 4.625V5.85938H92.1094V4.625H97.9766ZM100.797 8.875V16H99.3516V7.54688H100.758L100.797 8.875ZM103.438 7.5L103.43 8.84375C103.31 8.81771 103.195 8.80208 103.086 8.79688C102.982 8.78646 102.862 8.78125 102.727 8.78125C102.393 8.78125 102.099 8.83333 101.844 8.9375C101.589 9.04167 101.372 9.1875 101.195 9.375C101.018 9.5625 100.878 9.78646 100.773 10.0469C100.674 10.3021 100.609 10.5833 100.578 10.8906L100.172 11.125C100.172 10.6146 100.221 10.1354 100.32 9.6875C100.424 9.23958 100.583 8.84375 100.797 8.5C101.01 8.15104 101.281 7.88021 101.609 7.6875C101.943 7.48958 102.339 7.39062 102.797 7.39062C102.901 7.39062 103.021 7.40365 103.156 7.42969C103.292 7.45052 103.385 7.47396 103.438 7.5ZM108.125 16.1562C107.536 16.1562 107.003 16.0573 106.523 15.8594C106.049 15.6562 105.641 15.3724 105.297 15.0078C104.958 14.6432 104.698 14.2109 104.516 13.7109C104.333 13.2109 104.242 12.6641 104.242 12.0703V11.7422C104.242 11.0547 104.344 10.4427 104.547 9.90625C104.75 9.36458 105.026 8.90625 105.375 8.53125C105.724 8.15625 106.12 7.8724 106.562 7.67969C107.005 7.48698 107.464 7.39062 107.938 7.39062C108.542 7.39062 109.062 7.49479 109.5 7.70312C109.943 7.91146 110.305 8.20312 110.586 8.57812C110.867 8.94792 111.076 9.38542 111.211 9.89062C111.346 10.3906 111.414 10.9375 111.414 11.5312V12.1797H105.102V11H109.969V10.8906C109.948 10.5156 109.87 10.151 109.734 9.79688C109.604 9.44271 109.396 9.15104 109.109 8.92188C108.823 8.69271 108.432 8.57812 107.938 8.57812C107.609 8.57812 107.307 8.64844 107.031 8.78906C106.755 8.92448 106.518 9.1276 106.32 9.39844C106.122 9.66927 105.969 10 105.859 10.3906C105.75 10.7812 105.695 11.2318 105.695 11.7422V12.0703C105.695 12.4714 105.75 12.849 105.859 13.2031C105.974 13.5521 106.138 13.8594 106.352 14.125C106.57 14.3906 106.833 14.599 107.141 14.75C107.453 14.901 107.807 14.9766 108.203 14.9766C108.714 14.9766 109.146 14.8724 109.5 14.6641C109.854 14.4557 110.164 14.1771 110.43 13.8281L111.305 14.5234C111.122 14.7995 110.891 15.0625 110.609 15.3125C110.328 15.5625 109.982 15.7656 109.57 15.9219C109.164 16.0781 108.682 16.1562 108.125 16.1562ZM116.609 16.1562C116.021 16.1562 115.487 16.0573 115.008 15.8594C114.534 15.6562 114.125 15.3724 113.781 15.0078C113.443 14.6432 113.182 14.2109 113 13.7109C112.818 13.2109 112.727 12.6641 112.727 12.0703V11.7422C112.727 11.0547 112.828 10.4427 113.031 9.90625C113.234 9.36458 113.51 8.90625 113.859 8.53125C114.208 8.15625 114.604 7.8724 115.047 7.67969C115.49 7.48698 115.948 7.39062 116.422 7.39062C117.026 7.39062 117.547 7.49479 117.984 7.70312C118.427 7.91146 118.789 8.20312 119.07 8.57812C119.352 8.94792 119.56 9.38542 119.695 9.89062C119.831 10.3906 119.898 10.9375 119.898 11.5312V12.1797H113.586V11H118.453V10.8906C118.432 10.5156 118.354 10.151 118.219 9.79688C118.089 9.44271 117.88 9.15104 117.594 8.92188C117.307 8.69271 116.917 8.57812 116.422 8.57812C116.094 8.57812 115.792 8.64844 115.516 8.78906C115.24 8.92448 115.003 9.1276 114.805 9.39844C114.607 9.66927 114.453 10 114.344 10.3906C114.234 10.7812 114.18 11.2318 114.18 11.7422V12.0703C114.18 12.4714 114.234 12.849 114.344 13.2031C114.458 13.5521 114.622 13.8594 114.836 14.125C115.055 14.3906 115.318 14.599 115.625 14.75C115.938 14.901 116.292 14.9766 116.688 14.9766C117.198 14.9766 117.63 14.8724 117.984 14.6641C118.339 14.4557 118.648 14.1771 118.914 13.8281L119.789 14.5234C119.607 14.7995 119.375 15.0625 119.094 15.3125C118.812 15.5625 118.466 15.7656 118.055 15.9219C117.648 16.0781 117.167 16.1562 116.609 16.1562Z" fill="#00194A"/>
<path d="M0 17.5625H120.484V18.3438H0V17.5625Z" fill="#00194A"/>
</g>
</svg>
